GSerif01-AuthorTextRegular04.ufo
<glyph name="one" format="1">
  <advance width="434"/>
  <unicode hex="0031"/>
  <outline>
    <contour>
      <point x="54" y="51" type="line"/>
      <point x="54" y="0" type="line"/>
      <point x="404" y="0" type="line"/>
      <point x="404" y="51" type="line"/>
      <point x="275" y="51" type="line"/>
      <point x="275" y="51" type="line"/>
      <point x="183" y="51" type="line"/>
      <point x="183" y="51" type="line"/>
    </contour>
    <contour>
      <point x="183" y="698" type="line"/>
      <point x="183" y="0" type="line"/>
      <point x="275" y="0" type="line"/>
      <point x="275" y="710" type="line"/>
      <point x="191" y="710" type="line"/>
      <point x="44" y="680" type="line"/>
      <point x="44" y="626" type="line"/>
      <point x="253" y="662" type="line"/>
    </contour>
  </outline>
</glyph>
<glyph name="A" format="1">
  <advance width="697"/>
  <unicode hex="0041"/>
  <outline>
    <contour>
      <point x="68" y="0" type="line"/>
      <point x="124" y="0" type="line"/>
      <point x="355" y="710" type="line"/>
      <point x="299" y="710" type="line"/>
    </contour>
    <contour>
      <point x="539" y="0" type="line"/>
      <point x="631" y="0" type="line"/>
      <point x="396" y="710" type="line"/>
      <point x="323" y="710" type="line"/>
      <point x="320" y="670" type="line"/>
    </contour>
    <contour>
      <point x="196" y="294" type="line"/>
      <point x="189" y="245" type="line"/>
      <point x="474" y="245" type="line"/>
      <point x="472" y="294" type="line"/>
    </contour>
    <contour>
      <point x="18" y="0" type="line"/>
      <point x="241" y="0" type="line"/>
      <point x="241" y="41" type="line"/>
      <point x="223" y="41" type="line" smooth="yes"/>
      <point x="180" y="41"/>
      <point x="144" y="55"/>
      <point x="144" y="62" type="curve"/>
      <point x="98" y="91" type="line"/>
      <point x="86" y="57"/>
      <point x="62" y="41"/>
      <point x="26" y="41" type="curve"/>
      <point x="18" y="41" type="line"/>
    </contour>
    <contour>
      <point x="679" y="0" type="line"/>
      <point x="679" y="41" type="line"/>
      <point x="672" y="41" type="line"/>
      <point x="638" y="41"/>
      <point x="616" y="44"/>
      <point x="606" y="76" type="curve"/>
      <point x="522" y="52" type="line"/>
      <point x="522" y="46"/>
      <point x="476" y="41"/>
      <point x="439" y="41" type="curve" smooth="yes"/>
      <point x="424" y="41" type="line"/>
      <point x="424" y="0" type="line"/>
    </contour>
  </outline>
</glyph>
<glyph name="B" format="1">
  <advance width="692"/>
  <unicode hex="0042"/>
  <outline>
    <contour>
      <point x="147" y="0" type="line"/>
      <point x="240" y="0" type="line"/>
      <point x="240" y="710" type="line"/>
      <point x="147" y="710" type="line"/>
    </contour>
    <contour>
      <point x="147" y="633" type="curve"/>
      <point x="195" y="659" type="line"/>
      <point x="347" y="659" type="line" smooth="yes"/>
      <point x="451" y="659"/>
      <point x="495" y="612"/>
      <point x="495" y="529" type="curve" smooth="yes"/>
      <point x="495" y="450"/>
      <point x="456" y="397"/>
      <point x="348" y="397" type="curve" smooth="yes"/>
      <point x="196" y="397" type="line"/>
      <point x="196" y="347" type="line"/>
      <point x="360" y="347" type="line" smooth="yes"/>
      <point x="479" y="347"/>
      <point x="527" y="285"/>
      <point x="527" y="200" type="curve" smooth="yes"/>
      <point x="527" y="104"/>
      <point x="475" y="51"/>
      <point x="360" y="51" type="curve" smooth="yes"/>
      <point x="209" y="51" type="line"/>
      <point x="147" y="77" type="line"/>
      <point x="147" y="48"/>
      <point x="110" y="41"/>
      <point x="63" y="41" type="curve" smooth="yes"/>
      <point x="51" y="41" type="line"/>
      <point x="51" y="0" type="line"/>
      <point x="362" y="0" type="line" smooth="yes"/>
      <point x="528" y="0"/>
      <point x="623" y="76"/>
      <point x="623" y="199" type="curve" smooth="yes"/>
      <point x="623" y="312"/>
      <point x="528" y="386"/>
      <point x="352" y="386" type="curve"/>
      <point x="340" y="362" type="line"/>
      <point x="504" y="362"/>
      <point x="589" y="429"/>
      <point x="589" y="530" type="curve" smooth="yes"/>
      <point x="589" y="640"/>
      <point x="503" y="710"/>
      <point x="348" y="710" type="curve" smooth="yes"/>
      <point x="51" y="710" type="line"/>
      <point x="51" y="669" type="line"/>
      <point x="63" y="669" type="line" smooth="yes"/>
      <point x="110" y="669"/>
      <point x="147" y="662"/>
    </contour>
  </outline>
</glyph>
<glyph name="D" format="1">
  <advance width="751"/>
  <unicode hex="0044"/>
  <outline>
    <contour>
      <point x="146" y="0" type="line"/>
      <point x="240" y="0" type="line"/>
      <point x="240" y="710" type="line"/>
      <point x="146" y="710" type="line"/>
    </contour>
    <contour>
      <point x="693" y="357" type="curve" smooth="yes"/>
      <point x="693" y="574"/>
      <point x="560" y="710"/>
      <point x="336" y="710" type="curve" smooth="yes"/>
      <point x="51" y="710" type="line"/>
      <point x="51" y="669" type="line"/>
      <point x="62" y="669" type="line" smooth="yes"/>
      <point x="110" y="667"/>
      <point x="146" y="660"/>
      <point x="146" y="633" type="curve"/>
      <point x="198" y="659" type="line"/>
      <point x="336" y="659" type="line" smooth="yes"/>
      <point x="507" y="659"/>
      <point x="593" y="550"/>
      <point x="593" y="357" type="curve" smooth="yes"/>
      <point x="593" y="164"/>
      <point x="507" y="51"/>
      <point x="336" y="51" type="curve" smooth="yes"/>
      <point x="213" y="51" type="line"/>
      <point x="146" y="77" type="line"/>
      <point x="146" y="48"/>
      <point x="110" y="41"/>
      <point x="62" y="41" type="curve" smooth="yes"/>
      <point x="51" y="41" type="line"/>
      <point x="51" y="0" type="line"/>
      <point x="336" y="0" type="line" smooth="yes"/>
      <point x="560" y="0"/>
      <point x="693" y="141"/>
    </contour>
  </outline>
</glyph>
<glyph name="L" format="1">
  <advance width="653"/>
  <unicode hex="004C"/>
  <outline>
    <contour>
      <point x="147" y="0" type="line"/>
      <point x="240" y="0" type="line"/>
      <point x="240" y="710" type="line"/>
      <point x="147" y="710" type="line"/>
    </contour>
    <contour>
      <point x="607" y="222" type="line"/>
      <point x="559" y="222" type="line"/>
      <point x="544" y="101" type="line" smooth="yes"/>
      <point x="540" y="63"/>
      <point x="503" y="51"/>
      <point x="407" y="51" type="curve" smooth="yes"/>
      <point x="195" y="51" type="line"/>
      <point x="147" y="77" type="line"/>
      <point x="147" y="48"/>
      <point x="110" y="41"/>
      <point x="63" y="41" type="curve" smooth="yes"/>
      <point x="51" y="41" type="line"/>
      <point x="51" y="0" type="line"/>
      <point x="607" y="0" type="line"/>
    </contour>
    <contour>
      <point x="51" y="710" type="line"/>
      <point x="51" y="669" type="line"/>
      <point x="63" y="669" type="line" smooth="yes"/>
      <point x="110" y="669"/>
      <point x="147" y="662"/>
      <point x="147" y="633" type="curve"/>
      <point x="240" y="639" type="line"/>
      <point x="240" y="663"/>
      <point x="277" y="669"/>
      <point x="322" y="669" type="curve" smooth="yes"/>
      <point x="334" y="669" type="line"/>
      <point x="334" y="710" type="line"/>
    </contour>
  </outline>
</glyph>
<glyph name="M" format="1">
  <advance width="932"/>
  <unicode hex="004D"/>
  <outline>
    <contour>
      <point x="786" y="633" type="line"/>
      <point x="786" y="662"/>
      <point x="822" y="669"/>
      <point x="870" y="669" type="curve"/>
      <point x="882" y="669" type="line"/>
      <point x="882" y="710" type="line"/>
      <point x="649" y="710" type="line"/>
      <point x="443" y="47" type="line"/>
      <point x="480" y="64" type="line"/>
      <point x="284" y="710" type="line"/>
      <point x="51" y="710" type="line"/>
      <point x="51" y="669" type="line"/>
      <point x="64" y="669" type="line"/>
      <point x="110" y="669"/>
      <point x="147" y="662"/>
      <point x="147" y="633" type="curve"/>
      <point x="147" y="0" type="line"/>
      <point x="202" y="0" type="line"/>
      <point x="202" y="699" type="line"/>
      <point x="196" y="680" type="line"/>
      <point x="416" y="-2" type="line"/>
      <point x="478" y="-2" type="line"/>
      <point x="700" y="682" type="line"/>
      <point x="692" y="699" type="line"/>
      <point x="692" y="0" type="line"/>
      <point x="786" y="0" type="line"/>
    </contour>
    <contour>
      <point x="294" y="0" type="line"/>
      <point x="294" y="41" type="line"/>
      <point x="282" y="41" type="line"/>
      <point x="247" y="40"/>
      <point x="202" y="45"/>
      <point x="202" y="57" type="curve"/>
      <point x="147" y="84" type="line"/>
      <point x="147" y="51"/>
      <point x="110" y="41"/>
      <point x="64" y="41" type="curve"/>
      <point x="51" y="41" type="line"/>
      <point x="51" y="0" type="line"/>
    </contour>
    <contour>
      <point x="595" y="41" type="line"/>
      <point x="595" y="0" type="line"/>
      <point x="882" y="0" type="line"/>
      <point x="882" y="41" type="line"/>
      <point x="870" y="41" type="line"/>
      <point x="822" y="41"/>
      <point x="786" y="48"/>
      <point x="786" y="77" type="curve"/>
      <point x="690" y="51" type="line"/>
      <point x="696" y="44"/>
      <point x="642" y="41"/>
      <point x="604" y="41" type="curve"/>
    </contour>
  </outline>
</glyph>
<glyph name="N" format="1">
  <advance width="782"/>
  <unicode hex="004E"/>
  <outline>
    <contour>
      <point x="267" y="710" type="line"/>
      <point x="51" y="710" type="line"/>
      <point x="51" y="669" type="line"/>
      <point x="64" y="669" type="line"/>
      <point x="110" y="669"/>
      <point x="147" y="662"/>
      <point x="147" y="633" type="curve"/>
      <point x="147" y="0" type="line"/>
      <point x="206" y="0" type="line"/>
      <point x="206" y="696" type="line"/>
      <point x="189" y="677" type="line"/>
      <point x="544" y="0" type="line"/>
      <point x="636" y="0" type="line"/>
      <point x="636" y="710" type="line"/>
      <point x="577" y="710" type="line"/>
      <point x="577" y="65" type="line"/>
      <point x="604" y="69" type="line"/>
    </contour>
    <contour>
      <point x="51" y="41" type="line"/>
      <point x="51" y="0" type="line"/>
      <point x="311" y="0" type="line"/>
      <point x="311" y="41" type="line"/>
      <point x="293" y="41" type="line"/>
      <point x="250" y="41"/>
      <point x="206" y="45"/>
      <point x="206" y="57" type="curve"/>
      <point x="147" y="84" type="line"/>
      <point x="147" y="51"/>
      <point x="110" y="41"/>
      <point x="64" y="41" type="curve"/>
    </contour>
    <contour>
      <point x="731" y="669" type="line"/>
      <point x="731" y="710" type="line"/>
      <point x="471" y="710" type="line"/>
      <point x="471" y="669" type="line"/>
      <point x="489" y="669" type="line"/>
      <point x="532" y="669"/>
      <point x="577" y="665"/>
      <point x="577" y="653" type="curve"/>
      <point x="636" y="626" type="line"/>
      <point x="636" y="659"/>
      <point x="672" y="669"/>
      <point x="718" y="669" type="curve"/>
    </contour>
  </outline>
</glyph>
<glyph name="P" format="1">
  <advance width="684"/>
  <unicode hex="0050"/>
  <outline>
    <contour>
      <point x="146" y="0" type="line"/>
      <point x="239" y="0" type="line"/>
      <point x="239" y="710" type="line"/>
      <point x="146" y="710" type="line"/>
    </contour>
    <contour>
      <point x="208" y="659" type="line"/>
      <point x="358" y="659" type="line" smooth="yes"/>
      <point x="468" y="659"/>
      <point x="524" y="602"/>
      <point x="524" y="502" type="curve"/>
      <point x="524" y="404"/>
      <point x="468" y="340"/>
      <point x="353" y="340" type="curve" smooth="yes"/>
      <point x="195" y="340" type="line"/>
      <point x="195" y="290" type="line"/>
      <point x="354" y="290" type="line" smooth="yes"/>
      <point x="518" y="290"/>
      <point x="620" y="376"/>
      <point x="620" y="504" type="curve"/>
      <point x="620" y="630"/>
      <point x="523" y="710"/>
      <point x="359" y="710" type="curve" smooth="yes"/>
      <point x="50" y="710" type="line"/>
      <point x="50" y="669" type="line"/>
      <point x="62" y="669" type="line" smooth="yes"/>
      <point x="110" y="669"/>
      <point x="146" y="662"/>
      <point x="146" y="633" type="curve"/>
    </contour>
    <contour>
      <point x="342" y="0" type="line"/>
      <point x="342" y="41" type="line"/>
      <point x="324" y="41" type="line"/>
      <point x="292" y="41"/>
      <point x="239" y="44"/>
      <point x="239" y="72" type="curve"/>
      <point x="146" y="77" type="line"/>
      <point x="146" y="48"/>
      <point x="110" y="41"/>
      <point x="62" y="41" type="curve" smooth="yes"/>
      <point x="50" y="41" type="line"/>
      <point x="50" y="0" type="line"/>
    </contour>
  </outline>
</glyph>
<glyph name="R" format="1">
  <advance width="710"/>
  <unicode hex="0052"/>
  <outline>
    <contour>
      <point x="149" y="0" type="line"/>
      <point x="242" y="0" type="line"/>
      <point x="242" y="710" type="line"/>
      <point x="149" y="710" type="line"/>
    </contour>
    <contour>
      <point x="350" y="306" type="line" smooth="yes"/>
      <point x="510" y="306"/>
      <point x="613" y="386"/>
      <point x="613" y="507" type="curve" smooth="yes"/>
      <point x="613" y="628"/>
      <point x="516" y="710"/>
      <point x="355" y="710" type="curve" smooth="yes"/>
      <point x="54" y="710" type="line"/>
      <point x="54" y="669" type="line"/>
      <point x="66" y="669" type="line"/>
      <point x="113" y="669"/>
      <point x="149" y="662"/>
      <point x="149" y="633" type="curve"/>
      <point x="198" y="659" type="line"/>
      <point x="353" y="659" type="line" smooth="yes"/>
      <point x="464" y="659"/>
      <point x="520" y="600"/>
      <point x="520" y="507" type="curve" smooth="yes"/>
      <point x="520" y="412"/>
      <point x="467" y="354"/>
      <point x="349" y="354" type="curve" smooth="yes"/>
      <point x="198" y="354" type="line"/>
      <point x="198" y="306" type="line"/>
    </contour>
    <contour>
      <point x="371" y="322" type="line"/>
      <point x="539" y="0" type="line"/>
      <point x="643" y="0" type="line"/>
      <point x="633" y="25" type="line"/>
      <point x="460" y="336" type="line"/>
    </contour>
    <contour>
      <point x="688" y="0" type="line"/>
      <point x="688" y="41" type="line"/>
      <point x="678" y="41" type="line"/>
      <point x="640" y="41"/>
      <point x="622" y="46"/>
      <point x="604" y="78" type="curve"/>
      <point x="588" y="0" type="line"/>
    </contour>
    <contour>
      <point x="54" y="41" type="line"/>
      <point x="54" y="0" type="line"/>
      <point x="333" y="0" type="line"/>
      <point x="333" y="41" type="line"/>
      <point x="326" y="41" type="line" smooth="yes"/>
      <point x="291" y="41"/>
      <point x="242" y="44"/>
      <point x="242" y="51" type="curve"/>
      <point x="149" y="77" type="line"/>
      <point x="149" y="48"/>
      <point x="113" y="41"/>
      <point x="66" y="41" type="curve" smooth="yes"/>
    </contour>
  </outline>
</glyph>
<glyph name="g" format="1">
  <advance width="639"/>
  <unicode hex="0067"/>
  <outline>
    <contour>
      <point x="296" y="-252" type="curve"/>
      <point x="334" y="-252" type="line"/>
      <point x="479" y="-252"/>
      <point x="605" y="-191"/>
      <point x="605" y="-71" type="curve" smooth="yes"/>
      <point x="605" y="16"/>
      <point x="542" y="60"/>
      <point x="424" y="60" type="curve" smooth="yes"/>
      <point x="239" y="60" type="line" smooth="yes"/>
      <point x="186" y="60"/>
      <point x="156" y="71"/>
      <point x="156" y="107" type="curve" smooth="yes"/>
      <point x="156" y="143"/>
      <point x="186" y="174"/>
      <point x="233" y="196" type="curve"/>
      <point x="253" y="225"/>
      <point x="203" y="245"/>
      <point x="186" y="215" type="curve"/>
      <point x="115" y="181"/>
      <point x="79" y="132"/>
      <point x="79" y="81" type="curve" smooth="yes"/>
      <point x="79" y="46"/>
      <point x="96" y="8"/>
      <point x="144" y="-14" type="curve"/>
      <point x="140" y="-20"/>
      <point x="134" y="-16"/>
      <point x="138" y="-26" type="curve"/>
      <point x="423" y="-26" type="line" smooth="yes"/>
      <point x="502" y="-26"/>
      <point x="526" y="-47"/>
      <point x="526" y="-89" type="curve" smooth="yes"/>
      <point x="526" y="-152"/>
      <point x="445" y="-198"/>
      <point x="332" y="-198" type="curve"/>
      <point x="298" y="-198" type="line"/>
      <point x="176" y="-198"/>
      <point x="120" y="-164"/>
      <point x="120" y="-111" type="curve" smooth="yes"/>
      <point x="120" y="-72"/>
      <point x="138" y="-39"/>
      <point x="189" y="-14" type="curve"/>
      <point x="158" y="10" type="line"/>
      <point x="80" y="-26"/>
      <point x="44" y="-63"/>
      <point x="44" y="-114" type="curve"/>
      <point x="44" y="-210"/>
      <point x="159" y="-252"/>
    </contour>
    <contour>
      <point x="188" y="358" type="curve" smooth="yes"/>
      <point x="188" y="445"/>
      <point x="235" y="497"/>
      <point x="308" y="497" type="curve" smooth="yes"/>
      <point x="382" y="497"/>
      <point x="430" y="445"/>
      <point x="430" y="358" type="curve" smooth="yes"/>
      <point x="430" y="270"/>
      <point x="382" y="222"/>
      <point x="308" y="222" type="curve" smooth="yes"/>
      <point x="235" y="222"/>
      <point x="188" y="270"/>
    </contour>
    <contour>
      <point x="308" y="169" type="curve" smooth="yes"/>
      <point x="429" y="169"/>
      <point x="520" y="243"/>
      <point x="520" y="358" type="curve" smooth="yes"/>
      <point x="520" y="472"/>
      <point x="428" y="550"/>
      <point x="308" y="550" type="curve" smooth="yes"/>
      <point x="188" y="550"/>
      <point x="98" y="472"/>
      <point x="98" y="358" type="curve" smooth="yes"/>
      <point x="98" y="243"/>
      <point x="188" y="169"/>
    </contour>
    <contour>
      <point x="446" y="464" type="curve"/>
      <point x="472" y="441" type="line"/>
      <point x="498" y="466"/>
      <point x="544" y="470"/>
      <point x="610" y="465" type="curve"/>
      <point x="610" y="550" type="line"/>
      <point x="558" y="556"/>
      <point x="492" y="528"/>
    </contour>
  </outline>
</glyph>
<glyph name="o" format="1">
  <advance width="617"/>
  <unicode hex="006F"/>
  <outline>
    <contour>
      <point x="308" y="-12" type="curve"/>
      <point x="462" y="-12"/>
      <point x="564" y="103"/>
      <point x="564" y="269" type="curve" smooth="yes"/>
      <point x="564" y="436"/>
      <point x="462" y="550"/>
      <point x="308" y="550" type="curve" smooth="yes"/>
      <point x="154" y="550"/>
      <point x="53" y="435"/>
      <point x="53" y="269" type="curve" smooth="yes"/>
      <point x="53" y="103"/>
      <point x="154" y="-12"/>
    </contour>
    <contour>
      <point x="308" y="43" type="curve"/>
      <point x="204" y="43"/>
      <point x="147" y="132"/>
      <point x="147" y="269" type="curve" smooth="yes"/>
      <point x="147" y="408"/>
      <point x="204" y="495"/>
      <point x="308" y="495" type="curve" smooth="yes"/>
      <point x="412" y="495"/>
      <point x="470" y="408"/>
      <point x="470" y="269" type="curve" smooth="yes"/>
      <point x="470" y="132"/>
      <point x="412" y="43"/>
    </contour>
  </outline>
</glyph>
<glyph name="v" format="1">
  <advance width="628"/>
  <unicode hex="0076"/>
  <outline>
    <contour>
      <point x="253" y="540" type="line"/>
      <point x="14" y="540" type="line"/>
      <point x="14" y="501" type="line"/>
      <point x="16" y="501" type="line"/>
      <point x="59" y="501"/>
      <point x="80" y="493"/>
      <point x="91" y="465" type="curve"/>
      <point x="170" y="491" type="line"/>
      <point x="170" y="498"/>
      <point x="220" y="501"/>
      <point x="245" y="501" type="curve"/>
      <point x="253" y="501" type="line"/>
    </contour>
    <contour>
      <point x="327" y="0" type="line"/>
      <point x="341" y="36" type="line"/>
      <point x="152" y="540" type="line"/>
      <point x="62" y="540" type="line"/>
      <point x="270" y="0" type="line"/>
    </contour>
    <contour>
      <point x="358" y="0" type="line"/>
      <point x="566" y="540" type="line"/>
      <point x="496" y="540" type="line"/>
      <point x="304" y="30" type="line"/>
      <point x="314" y="0" type="line"/>
    </contour>
    <contour>
      <point x="395" y="540" type="line"/>
      <point x="395" y="501" type="line"/>
      <point x="402" y="501" type="line"/>
      <point x="441" y="501"/>
      <point x="474" y="496"/>
      <point x="474" y="482" type="curve"/>
      <point x="534" y="458" type="line"/>
      <point x="544" y="486"/>
      <point x="566" y="501"/>
      <point x="612" y="501" type="curve"/>
      <point x="614" y="501" type="line"/>
      <point x="614" y="540" type="line"/>
    </contour>
  </outline>
</glyph>
<glyph name="x" format="1">
  <advance width="615"/>
  <unicode hex="0078"/>
  <outline>
    <contour>
      <point x="344" y="264" type="line"/>
      <point x="550" y="526" type="line"/>
      <point x="480" y="528" type="line"/>
      <point x="304" y="300" type="line"/>
    </contour>
    <contour>
      <point x="473" y="0" type="line"/>
      <point x="572" y="2" type="line"/>
      <point x="343" y="293" type="line"/>
      <point x="339" y="297" type="line"/>
      <point x="163" y="528" type="line"/>
      <point x="64" y="526" type="line"/>
      <point x="276" y="251" type="line"/>
      <point x="280" y="247" type="line"/>
    </contour>
    <contour>
      <point x="262" y="283" type="line"/>
      <point x="38" y="2" type="line"/>
      <point x="110" y="0" type="line"/>
      <point x="305" y="249" type="line"/>
    </contour>
    <contour>
      <point x="270" y="540" type="line"/>
      <point x="34" y="540" type="line"/>
      <point x="34" y="502" type="line"/>
      <point x="36" y="502" type="line"/>
      <point x="74" y="502"/>
      <point x="89" y="493"/>
      <point x="112" y="464" type="curve"/>
      <point x="192" y="490" type="line"/>
      <point x="192" y="498"/>
      <point x="238" y="501"/>
      <point x="263" y="501" type="curve"/>
      <point x="270" y="501" type="line"/>
    </contour>
    <contour>
      <point x="368" y="540" type="line"/>
      <point x="368" y="501" type="line"/>
      <point x="375" y="501" type="line"/>
      <point x="413" y="501"/>
      <point x="444" y="495"/>
      <point x="444" y="480" type="curve"/>
      <point x="494" y="455" type="line"/>
      <point x="514" y="481"/>
      <point x="528" y="501"/>
      <point x="575" y="501" type="curve"/>
      <point x="577" y="501" type="line"/>
      <point x="577" y="540" type="line"/>
    </contour>
    <contour>
      <point x="353" y="0" type="line"/>
      <point x="594" y="0" type="line"/>
      <point x="594" y="39" type="line"/>
      <point x="592" y="39" type="line"/>
      <point x="553" y="39"/>
      <point x="536" y="48"/>
      <point x="514" y="76" type="curve"/>
      <point x="435" y="50" type="line"/>
      <point x="435" y="42"/>
      <point x="386" y="39"/>
      <point x="360" y="39" type="curve"/>
      <point x="353" y="39" type="line"/>
    </contour>
    <contour>
      <point x="237" y="0" type="line"/>
      <point x="237" y="39" type="line"/>
      <point x="229" y="39" type="line"/>
      <point x="190" y="39"/>
      <point x="157" y="45"/>
      <point x="157" y="61" type="curve"/>
      <point x="106" y="86" type="line"/>
      <point x="84" y="58"/>
      <point x="72" y="39"/>
      <point x="24" y="39" type="curve"/>
      <point x="22" y="39" type="line"/>
      <point x="22" y="0" type="line"/>
    </contour>
  </outline>
</glyph>
<glyph name="F.alt" format="1">
  <advance width="607"/>
  <outline>
    <contour>
      <point x="147" y="0" type="line"/>
      <point x="240" y="0" type="line"/>
      <point x="240" y="710" type="line"/>
      <point x="147" y="710" type="line"/>
    </contour>
    <contour>
      <point x="566" y="710" type="line"/>
      <point x="51" y="710" type="line"/>
      <point x="51" y="669" type="line"/>
      <point x="63" y="669" type="line" smooth="yes"/>
      <point x="110" y="669"/>
      <point x="147" y="662"/>
      <point x="147" y="633" type="curve"/>
      <point x="202" y="659" type="line"/>
      <point x="381" y="659" type="line" smooth="yes"/>
      <point x="467" y="659"/>
      <point x="502" y="650"/>
      <point x="506" y="612" type="curve" smooth="yes"/>
      <point x="518" y="522" type="line"/>
      <point x="566" y="522" type="line"/>
    </contour>
    <contour>
      <point x="51" y="0" type="line"/>
      <point x="348" y="0" type="line"/>
      <point x="348" y="41" type="line"/>
      <point x="332" y="41" type="line" smooth="yes"/>
      <point x="290" y="41"/>
      <point x="240" y="44"/>
      <point x="240" y="75" type="curve"/>
      <point x="147" y="77" type="line"/>
      <point x="147" y="48"/>
      <point x="110" y="41"/>
      <point x="63" y="41" type="curve" smooth="yes"/>
      <point x="51" y="41" type="line"/>
    </contour>
    <contour>
      <point x="229" y="378" type="line"/>
      <point x="229" y="328" type="line"/>
      <point x="453" y="328" type="line"/>
      <point x="453" y="378" type="line"/>
    </contour>
    <contour>
      <point x="476" y="257" type="line"/>
      <point x="476" y="450" type="line"/>
      <point x="435" y="450" type="line"/>
      <point x="435" y="444" type="line"/>
      <point x="435" y="409"/>
      <point x="425" y="378"/>
      <point x="396" y="378" type="curve"/>
      <point x="396" y="328" type="line"/>
      <point x="425" y="328"/>
      <point x="435" y="297"/>
      <point x="435" y="263" type="curve"/>
      <point x="435" y="257" type="line"/>
    </contour>
  </outline>
</glyph>
<glyph name="J.alt" format="1">
  <advance width="620"/>
  <outline>
    <contour>
      <point x="238" y="40" type="curve"/>
      <point x="176" y="40"/>
      <point x="125" y="64"/>
      <point x="108" y="95" type="curve"/>
      <point x="75" y="142"/>
      <point x="85" y="72"/>
      <point x="134" y="58" type="curve"/>
      <point x="134" y="159" type="line"/>
      <point x="40" y="160" type="line"/>
      <point x="40" y="58" type="line"/>
      <point x="74" y="20"/>
      <point x="150" y="-10"/>
      <point x="238" y="-10" type="curve"/>
      <point x="369" y="-10"/>
      <point x="461" y="55"/>
      <point x="461" y="223" type="curve" smooth="yes"/>
      <point x="461" y="710" type="line"/>
      <point x="368" y="710" type="line"/>
      <point x="368" y="223" type="line" smooth="yes"/>
      <point x="368" y="79"/>
      <point x="318" y="40"/>
    </contour>
    <contour>
      <point x="229" y="710" type="line"/>
      <point x="229" y="669" type="line"/>
      <point x="282" y="669" type="line" smooth="yes"/>
      <point x="331" y="669"/>
      <point x="368" y="662"/>
      <point x="368" y="633" type="curve"/>
      <point x="461" y="633" type="line"/>
      <point x="461" y="662"/>
      <point x="497" y="669"/>
      <point x="544" y="669" type="curve" smooth="yes"/>
      <point x="579" y="669" type="line"/>
      <point x="579" y="710" type="line"/>
    </contour>
  </outline>
</glyph>
<glyph name="Q.alt2" format="1">
  <advance width="756"/>
  <outline>
    <contour>
      <point x="378" y="-10" type="curve" smooth="yes"/>
      <point x="563" y="-10"/>
      <point x="698" y="135"/>
      <point x="698" y="355" type="curve" smooth="yes"/>
      <point x="698" y="574"/>
      <point x="563" y="720"/>
      <point x="378" y="720" type="curve" smooth="yes"/>
      <point x="191" y="720"/>
      <point x="58" y="575"/>
      <point x="58" y="355" type="curve" smooth="yes"/>
      <point x="58" y="136"/>
      <point x="191" y="-10"/>
    </contour>
    <contour>
      <point x="378" y="40" type="curve" smooth="yes"/>
      <point x="243" y="40"/>
      <point x="158" y="158"/>
      <point x="158" y="355" type="curve" smooth="yes"/>
      <point x="158" y="552"/>
      <point x="243" y="670"/>
      <point x="378" y="670" type="curve" smooth="yes"/>
      <point x="513" y="670"/>
      <point x="597" y="552"/>
      <point x="597" y="355" type="curve" smooth="yes"/>
      <point x="597" y="158"/>
      <point x="513" y="40"/>
    </contour>
    <contour>
      <point x="178" y="-173" type="curve"/>
      <point x="224" y="-191" type="line"/>
      <point x="248" y="-135"/>
      <point x="285" y="-100"/>
      <point x="349" y="-100" type="curve" smooth="yes"/>
      <point x="424" y="-100"/>
      <point x="542" y="-142"/>
      <point x="674" y="-211" type="curve"/>
      <point x="709" y="-122" type="line"/>
      <point x="585" y="-72"/>
      <point x="470" y="-44"/>
      <point x="384" y="-44" type="curve" smooth="yes"/>
      <point x="274" y="-44"/>
      <point x="216" y="-88"/>
    </contour>
  </outline>
</glyph>
<glyph name="S.srf" format="1">
  <advance width="626"/>
  <outline>
    <contour>
      <point x="332" y="40" type="curve" smooth="yes"/>
      <point x="231" y="40"/>
      <point x="146" y="101"/>
      <point x="122" y="220" type="curve"/>
      <point x="46" y="220" type="line"/>
      <point x="46" y="0" type="line"/>
      <point x="102" y="0" type="line"/>
      <point x="114" y="158" type="line"/>
      <point x="112" y="162"/>
      <point x="95" y="154"/>
      <point x="88" y="160" type="curve"/>
      <point x="127" y="38"/>
      <point x="231" y="-10"/>
      <point x="336" y="-10" type="curve" smooth="yes"/>
      <point x="462" y="-10"/>
      <point x="568" y="64"/>
      <point x="568" y="195" type="curve" smooth="yes"/>
      <point x="568" y="335"/>
      <point x="454" y="374"/>
      <point x="344" y="405" type="curve" smooth="yes"/>
      <point x="244" y="433"/>
      <point x="152" y="454"/>
      <point x="152" y="544" type="curve" smooth="yes"/>
      <point x="152" y="619"/>
      <point x="202" y="669"/>
      <point x="294" y="669" type="curve" smooth="yes"/>
      <point x="383" y="669"/>
      <point x="451" y="615"/>
      <point x="466" y="525" type="curve"/>
      <point x="536" y="525" type="line"/>
      <point x="536" y="710" type="line"/>
      <point x="484" y="710" type="line"/>
      <point x="473" y="576" type="line"/>
      <point x="482" y="573"/>
      <point x="496" y="572"/>
      <point x="499" y="577" type="curve"/>
      <point x="459" y="687"/>
      <point x="376" y="720"/>
      <point x="284" y="720" type="curve" smooth="yes"/>
      <point x="163" y="720"/>
      <point x="69" y="645"/>
      <point x="69" y="533" type="curve"/>
      <point x="69" y="395"/>
      <point x="180" y="359"/>
      <point x="288" y="329" type="curve" smooth="yes"/>
      <point x="386" y="302"/>
      <point x="480" y="275"/>
      <point x="480" y="174" type="curve" smooth="yes"/>
      <point x="480" y="81"/>
      <point x="421" y="40"/>
    </contour>
  </outline>
</glyph>
<glyph name="W.alt" format="1">
  <advance width="1048"/>
  <outline>
    <contour>
      <point x="165" y="710" type="line"/>
      <point x="75" y="710" type="line"/>
      <point x="270" y="0" type="line"/>
      <point x="340" y="0" type="line"/>
      <point x="342" y="40" type="line"/>
    </contour>
    <contour>
      <point x="17" y="710" type="line"/>
      <point x="17" y="669" type="line"/>
      <point x="24" y="669" type="line" smooth="yes"/>
      <point x="61" y="669"/>
      <point x="86" y="668"/>
      <point x="95" y="636" type="curve"/>
      <point x="178" y="658" type="line"/>
      <point x="178" y="664"/>
      <point x="226" y="669"/>
      <point x="267" y="669" type="curve" smooth="yes"/>
      <point x="283" y="669" type="line"/>
      <point x="283" y="710" type="line"/>
    </contour>
    <contour>
      <point x="971" y="708" type="line"/>
      <point x="916" y="710" type="line"/>
      <point x="722" y="0" type="line"/>
      <point x="778" y="-2" type="line"/>
    </contour>
    <contour>
      <point x="1031" y="710" type="line"/>
      <point x="794" y="710" type="line"/>
      <point x="794" y="669" type="line"/>
      <point x="813" y="669" type="line" smooth="yes"/>
      <point x="859" y="669"/>
      <point x="899" y="654"/>
      <point x="899" y="647" type="curve"/>
      <point x="946" y="618" type="line"/>
      <point x="956" y="654"/>
      <point x="984" y="669"/>
      <point x="1023" y="669" type="curve" smooth="yes"/>
      <point x="1031" y="669" type="line"/>
    </contour>
    <contour>
      <point x="492" y="710" type="line"/>
      <point x="309" y="0" type="line"/>
      <point x="366" y="0" type="line"/>
      <point x="531" y="668" type="line"/>
      <point x="514" y="676" type="line"/>
      <point x="682" y="0" type="line"/>
      <point x="753" y="0" type="line"/>
      <point x="755" y="40" type="line"/>
      <point x="588" y="710" type="line"/>
    </contour>
    <contour>
      <point x="685" y="710" type="line"/>
      <point x="396" y="710" type="line"/>
      <point x="396" y="669" type="line"/>
      <point x="412" y="669" type="line" smooth="yes"/>
      <point x="443" y="669"/>
      <point x="480" y="664"/>
      <point x="480" y="658" type="curve"/>
      <point x="601" y="658" type="line"/>
      <point x="601" y="664"/>
      <point x="638" y="669"/>
      <point x="669" y="669" type="curve" smooth="yes"/>
      <point x="685" y="669" type="line"/>
    </contour>
  </outline>
</glyph>
<glyph name="five.alt3" format="1">
  <advance width="610"/>
  <outline>
    <contour>
      <point x="465" y="646" type="line"/>
      <point x="465" y="646" type="line"/>
      <point x="465" y="550" type="line"/>
      <point x="519" y="550" type="line"/>
      <point x="519" y="720" type="line"/>
      <point x="150" y="720" type="line"/>
      <point x="89" y="407" type="line"/>
      <point x="89" y="373" type="line"/>
      <point x="224" y="373" type="line" smooth="yes"/>
      <point x="384" y="373"/>
      <point x="467" y="326"/>
      <point x="467" y="210" type="curve" smooth="yes"/>
      <point x="467" y="97"/>
      <point x="400" y="45"/>
      <point x="313" y="45" type="curve" smooth="yes"/>
      <point x="218" y="45"/>
      <point x="156" y="91"/>
      <point x="142" y="205" type="curve"/>
      <point x="44" y="205" type="line"/>
      <point x="61" y="61"/>
      <point x="164" y="-10"/>
      <point x="313" y="-10" type="curve" smooth="yes"/>
      <point x="448" y="-10"/>
      <point x="562" y="67"/>
      <point x="562" y="210" type="curve" smooth="yes"/>
      <point x="562" y="344"/>
      <point x="456" y="428"/>
      <point x="256" y="428" type="curve" smooth="yes"/>
      <point x="118" y="428" type="line"/>
      <point x="147" y="404" type="line"/>
      <point x="198" y="669" type="line"/>
      <point x="174" y="646" type="line"/>
    </contour>
  </outline>
</glyph>
<glyph name="g.alt" format="1">
  <advance width="635"/>
  <outline>
    <contour>
      <point x="147" y="277" type="curve" smooth="yes"/>
      <point x="147" y="409"/>
      <point x="196" y="494"/>
      <point x="292" y="494" type="curve" smooth="yes"/>
      <point x="370" y="494"/>
      <point x="430" y="449"/>
      <point x="473" y="351" type="curve"/>
      <point x="510" y="370" type="line"/>
      <point x="448" y="498"/>
      <point x="390" y="550"/>
      <point x="291" y="550" type="curve" smooth="yes"/>
      <point x="145" y="550"/>
      <point x="53" y="437"/>
      <point x="53" y="277" type="curve" smooth="yes"/>
      <point x="53" y="117"/>
      <point x="142" y="9"/>
      <point x="283" y="9" type="curve" smooth="yes"/>
      <point x="384" y="9"/>
      <point x="438" y="71"/>
      <point x="508" y="196" type="curve"/>
      <point x="473" y="217" type="line"/>
      <point x="429" y="120"/>
      <point x="370" y="64"/>
      <point x="290" y="64" type="curve" smooth="yes"/>
      <point x="195" y="64"/>
      <point x="147" y="147"/>
    </contour>
    <contour>
      <point x="289" y="-178" type="curve" smooth="yes"/>
      <point x="212" y="-178"/>
      <point x="153" y="-154"/>
      <point x="128" y="-94" type="curve"/>
      <point x="117" y="-127"/>
      <point x="132" y="-149"/>
      <point x="159" y="-148" type="curve"/>
      <point x="159" y="-64" type="line"/>
      <point x="70" y="-64" type="line"/>
      <point x="70" y="-149" type="line"/>
      <point x="105" y="-198"/>
      <point x="191" y="-233"/>
      <point x="289" y="-233" type="curve" smooth="yes"/>
      <point x="412" y="-233"/>
      <point x="538" y="-178"/>
      <point x="538" y="-18" type="curve" smooth="yes"/>
      <point x="538" y="544" type="line"/>
      <point x="484" y="544" type="line"/>
      <point x="456" y="435" type="line"/>
      <point x="449" y="417" type="line"/>
      <point x="449" y="-21" type="line" smooth="yes"/>
      <point x="449" y="-128"/>
      <point x="377" y="-178"/>
    </contour>
  </outline>
</glyph>
<glyph name="j.alt" format="1">
  <advance width="371"/>
  <outline>
    <contour>
      <point x="212" y="640" type="curve" smooth="yes"/>
      <point x="247" y="640"/>
      <point x="273" y="663"/>
      <point x="273" y="701" type="curve" smooth="yes"/>
      <point x="273" y="738"/>
      <point x="247" y="761"/>
      <point x="212" y="761" type="curve" smooth="yes"/>
      <point x="177" y="761"/>
      <point x="151" y="738"/>
      <point x="151" y="701" type="curve" smooth="yes"/>
      <point x="151" y="663"/>
      <point x="177" y="640"/>
    </contour>
    <contour>
      <point x="260" y="540" type="line"/>
      <point x="48" y="540" type="line"/>
      <point x="48" y="497" type="line"/>
      <point x="84" y="495" type="line" smooth="yes"/>
      <point x="146" y="492"/>
      <point x="170" y="479"/>
      <point x="170" y="450" type="curve" smooth="yes"/>
      <point x="170" y="-53" type="line" smooth="yes"/>
      <point x="170" y="-138"/>
      <point x="142" y="-194"/>
      <point x="76" y="-194" type="curve" smooth="yes"/>
      <point x="26" y="-194"/>
      <point x="-8" y="-175"/>
      <point x="-30" y="-129" type="curve"/>
      <point x="-42" y="-163"/>
      <point x="-20" y="-187"/>
      <point x="8" y="-186" type="curve"/>
      <point x="8" y="-96" type="line"/>
      <point x="-82" y="-96" type="line"/>
      <point x="-82" y="-175" type="line"/>
      <point x="-54" y="-214"/>
      <point x="0" y="-241"/>
      <point x="76" y="-241" type="curve" smooth="yes"/>
      <point x="188" y="-241"/>
      <point x="260" y="-163"/>
      <point x="260" y="-53" type="curve" smooth="yes"/>
    </contour>
  </outline>
</glyph>
<glyph name="k.alt" format="1">
  <advance width="658"/>
  <outline>
    <contour>
      <point x="518" y="0" type="line"/>
      <point x="592" y="0" type="line"/>
      <point x="596" y="37" type="line"/>
      <point x="352" y="313" type="line"/>
      <point x="348" y="291" type="line"/>
      <point x="570" y="512" type="line"/>
      <point x="556" y="537" type="line"/>
      <point x="518" y="537" type="line"/>
      <point x="276" y="297" type="line"/>
      <point x="276" y="276" type="line"/>
    </contour>
    <contour>
      <point x="46" y="0" type="line"/>
      <point x="305" y="0" type="line"/>
      <point x="305" y="39" type="line"/>
      <point x="301" y="39" type="line"/>
      <point x="268" y="39"/>
      <point x="222" y="43"/>
      <point x="222" y="55" type="curve"/>
      <point x="134" y="75" type="line"/>
      <point x="134" y="46"/>
      <point x="98" y="39"/>
      <point x="49" y="39" type="curve"/>
      <point x="46" y="39" type="line"/>
    </contour>
    <contour>
      <point x="46" y="750" type="line"/>
      <point x="46" y="707" type="line"/>
      <point x="58" y="705" type="line" smooth="yes"/>
      <point x="110" y="696"/>
      <point x="134" y="689"/>
      <point x="134" y="660" type="curve" smooth="yes"/>
      <point x="134" y="0" type="line"/>
      <point x="222" y="0" type="line"/>
      <point x="222" y="750" type="line"/>
    </contour>
    <contour>
      <point x="389" y="0" type="line"/>
      <point x="657" y="0" type="line"/>
      <point x="657" y="39" type="line"/>
      <point x="652" y="39" type="line"/>
      <point x="616" y="39"/>
      <point x="588" y="45"/>
      <point x="562" y="75" type="curve"/>
      <point x="474" y="50" type="line"/>
      <point x="474" y="43"/>
      <point x="424" y="39"/>
      <point x="396" y="39" type="curve"/>
      <point x="389" y="39" type="line"/>
    </contour>
    <contour>
      <point x="381" y="540" type="line"/>
      <point x="381" y="501" type="line"/>
      <point x="389" y="501" type="line"/>
      <point x="423" y="501"/>
      <point x="471" y="497"/>
      <point x="471" y="490" type="curve"/>
      <point x="516" y="459" type="line"/>
      <point x="547" y="490"/>
      <point x="573" y="501"/>
      <point x="608" y="501" type="curve"/>
      <point x="614" y="501" type="line"/>
      <point x="614" y="540" type="line"/>
    </contour>
    <contour>
      <point x="320" y="260" type="line"/>
      <point x="320" y="312" type="line"/>
      <point x="184" y="312" type="line"/>
      <point x="184" y="260" type="line"/>
    </contour>
  </outline>
</glyph>
